<svg height="681pt" viewBox="-48 -21 681 681.33466" width="681pt" xmlns="http://www.w3.org/2000/svg"><path d="m521.242188 496.71875c-30.347657-10.972656-70.167969-19.449219-116.179688-24.789062 4.445312-4.503907 8.835938-9.066407 13.144531-13.695313 41.1875-44.273437 68.609375-87.5625 83.839844-132.332031 32.710937-96.164063.578125-215.285156-74.75-277.078125-38.316406-31.429688-87.09375-48.7421878-137.34375-48.7421878-.003906 0 0 0 0 0-50.246094 0-99.027344 17.3124998-137.34375 48.7421878-35.671875 29.265625-63.140625 72.273437-77.347656 121.101562-14.035157 48.257813-14.355469 99.265625-.910157 143.640625 17.992188 59.367188 56.628907 111.652344 102.074219 158.386719-45.851562 5.335937-85.542969 13.785156-115.828125 24.722656-41.316406 14.917969-62.261718 33.605469-62.261718 55.535157 0 26.78125 30.738281 48.484374 91.355468 64.519531 53.894532 14.253906 125.335938 22.105469 201.171875 22.105469 75.828125 0 147.273438-7.851563 201.167969-22.105469 60.617188-16.035157 91.355469-37.738281 91.355469-64.519531 0-21.910157-20.914063-40.578126-62.144531-55.492188zm-421.828126-319.765625c12.800782-44.003906 37.359376-82.605469 69.148438-108.683594 33.828125-27.753906 76.941406-43.035156 121.390625-43.035156 44.445313 0 87.558594 15.289063 121.390625 43.039063 32.894531 26.984374 57.734375 67.605468 69.9375 114.386718 12.015625 46.046875 10.933594 94.046875-3.046875 135.148438-31.511719 92.628906-114.414063 161.707031-188.28125 222.59375-78.273437-64.597656-163.367187-141.195313-191.527344-234.128906-12.050781-39.769532-11.703125-85.695313.988281-129.320313zm386.183594 415.457031c-51.855468 13.71875-121.019531 21.273438-194.734375 21.273438-73.726562 0-142.886719-7.554688-194.742187-21.273438-57.335938-15.164062-72.632813-32.402344-72.632813-40.195312 0-16.707032 56.007813-46.292969 176.125-57.390625 25.03125 23.761719 51.328125 46.03125 76.84375 67.050781 10.355469 8.535156 16.464844 8.671875 26.996094-.003906 24.851563-20.484375 51.933594-42.816406 78.027344-67.101563 120.550781 11.054688 176.75 40.722657 176.75 57.445313 0 7.792968-15.296875 25.03125-72.632813 40.195312zm0 0"/><path d="m358.1875 362.496094c14.609375-6.882813 3.910156-29.648438-10.71875-22.757813-17.871094 8.414063-37.980469 13.054688-56.625 13.054688-71.15625 0-129.046875-57.894531-129.046875-129.050781 0-71.160157 57.890625-129.050782 129.046875-129.050782s129.046875 57.890625 129.046875 129.050782c0 17.539062-3.453125 34.542968-10.261719 50.53125-6.332031 14.855468 16.800782 24.738281 23.136719 9.859374 8.148437-19.125 12.277344-39.441406 12.277344-60.390624 0-85.023438-69.171875-154.199219-154.199219-154.199219s-154.203125 69.175781-154.203125 154.199219c0 85.023437 69.175781 154.199218 154.203125 154.199218 22.269531 0 46.1875-5.484375 67.34375-15.445312zm0 0"/><path d="m394.082031 307.9375c-6.832031 0-12.574219 5.722656-12.574219 12.5625 0 6.84375 5.738282 12.574219 12.574219 12.574219 6.652344 0 12.261719-5.390625 12.554688-12.023438.3125-7.046875-5.488281-13.113281-12.554688-13.113281zm0 0"/><path d="m388.628906 194.585938c-1.285156-3.949219-4.429687-7.007813-8.40625-8.175782l-49.707031-14.65625-29.296875-42.746094c-4.910156-7.160156-15.839844-7.160156-20.746094 0l-29.300781 42.746094-49.707031 14.65625c-8.316406 2.449219-11.710938 12.839844-6.40625 19.730469l31.597656 41.070313-1.421875 51.804687c-.242187 8.667969 8.589844 15.105469 16.78125 12.191406l48.828125-17.363281 48.828125 17.363281c8.1875 2.914063 17.023437-3.523437 16.785156-12.191406l-1.425781-51.804687 31.605469-41.070313c2.523437-3.289063 3.273437-7.613281 1.992187-11.554687zm-56.257812 40.832031c-7.558594 9.824219-1.878906 34.347656-1.5625 45.945312l-35.75-12.714843c-11.683594-4.15625-33.246094 8.828124-44.175782 12.714843.316407-11.503906 5.972657-36.148437-1.566406-45.945312l-23.136718-30.078125 36.398437-10.726563c11.890625-3.507812 21.710937-26.683593 28.265625-36.25l21.449219 31.300781c7.007812 10.222657 32.085937 12.398438 43.21875 15.683594zm0 0"/></svg>